<?xml version="1.0" encoding="utf-8"?>
<!-- Generator: Adobe Illustrator 22.0.1, SVG Export Plug-In . SVG Version: 6.00 Build 0)  -->
<svg version="1.1" id="Warstwa_1" xmlns="http://www.w3.org/2000/svg" xmlns:xlink="http://www.w3.org/1999/xlink" x="0px" y="0px"
	 width="950.3px" height="425.2px" viewBox="0 0 950.3 425.2" style="enable-background:new 0 0 950.3 425.2;" xml:space="preserve"
	>
<style type="text/css">
	.st0{fill-rule:evenodd;clip-rule:evenodd;fill:#696D6F;}
	.st1{fill-rule:evenodd;clip-rule:evenodd;fill:#EF7B10;}
	.st2{fill-rule:evenodd;clip-rule:evenodd;fill:#FFFFFF;}
</style>
<polygon class="st0" points="950.3,0 950.3,338.3 0,338.3 0,0 950.3,0 "/>
<polygon class="st1" points="0,338.3 950.3,338.3 950.3,425.2 0,425.2 0,338.3 "/>
<path class="st2" d="M366,168.5c0-38.6-20.9-72.3-55.9-89.6c-19.5-9.8-42.1-10-68.9-10h-48v169h145.4
	C356.3,219.2,366,194.7,366,168.5L366,168.5z M184.1,68.8h-18.9v199.4h93.9c26.6,0,46.9-4.3,66.2-18.7c1.2-0.9,2.3-1.7,3.4-2.6
	l-140.1,0h-4.5v-4.6V68.8L184.1,68.8z M284.1,164.2c0,13.7-9.8,21.6-28.5,21.6h-2.7v-42.1h2.7C274.1,143.7,284.1,151.3,284.1,164.2
	L284.1,164.2z M602.4,268.3c-0.7-7.4-1.7-14.6-3-21.4l-90.8,0c0.6,6.6,0.9,13.7,0.9,21.4H602.4L602.4,268.3z M597.5,237.8
	c-6.2-26.8-17-48.8-31-66.4c14.9-10.6,23.3-27.1,23.3-44.9c0-15.6-6-29.7-16.6-40c-15.7-15.2-35.3-17.6-63-17.6H384.8v169H474v-46.6
	c18,2.1,29.3,17.8,33.6,46.6H597.5L597.5,237.8z M384.8,246.9v21.4H474v-21.4L384.8,246.9L384.8,246.9z M501.7,126
	c0,12.1-8.4,18.9-25,18.9H474v-37.2h2.7C493,107.6,501.7,114.6,501.7,126L501.7,126z M785,268.3v-21.4l-165.2,0v21.4H785L785,268.3z
	 M785,237.8v-21.7h-76v-24.4h53.2v-49.7H709v-23.6h76V68.8H619.8v169H785L785,237.8z"/>
<path class="st2" d="M366,168.5c0-38.6-20.9-72.3-55.9-89.6c-19.5-9.8-42.1-10-68.9-10h-48v169h145.4
	C356.3,219.2,366,194.7,366,168.5L366,168.5z M184.1,68.8h-18.9v199.4h93.9c26.6,0,46.9-4.3,66.2-18.7c1.2-0.9,2.3-1.7,3.4-2.6
	l-140.1,0h-4.5v-4.6V68.8L184.1,68.8z M284.1,164.2c0,13.7-9.8,21.6-28.5,21.6h-2.7v-42.1h2.7C274.1,143.7,284.1,151.3,284.1,164.2
	L284.1,164.2z M602.4,268.3c-0.7-7.4-1.7-14.6-3-21.4l-90.8,0c0.6,6.6,0.9,13.7,0.9,21.4H602.4L602.4,268.3z M597.5,237.8
	c-6.2-26.8-17-48.8-31-66.4c14.9-10.6,23.3-27.1,23.3-44.9c0-15.7-6-29.7-16.6-40c-15.7-15.2-35.3-17.6-63-17.6H384.8v169H474v-46.6
	c18,2.1,29.3,17.8,33.6,46.6H597.5L597.5,237.8z M384.8,246.9v21.4H474v-21.4L384.8,246.9L384.8,246.9z M501.7,126
	c0,12.1-8.4,18.9-25,18.9H474v-37.2h2.7C493,107.6,501.7,114.6,501.7,126L501.7,126z M785,268.3v-21.4l-165.3,0v21.4H785L785,268.3z
	 M785,237.8v-21.7h-76v-24.4h53.2v-49.7H709v-23.6h76V68.8H619.8v169H785L785,237.8z"/>
<path class="st2" d="M366,168.5c0-38.6-20.9-72.3-55.9-89.6c-19.5-9.8-42.1-10-68.9-10h-48v169h145.4
	C356.3,219.2,366,194.7,366,168.5L366,168.5z M184.1,68.8h-18.9v199.4h93.9c26.6,0,46.9-4.3,66.2-18.7c1.2-0.9,2.3-1.7,3.4-2.6
	l-140.1,0h-4.5v-4.6V68.8L184.1,68.8z M284.1,164.2c0,13.7-9.8,21.6-28.5,21.6h-2.7v-42.1h2.7C274.1,143.7,284.1,151.3,284.1,164.2
	L284.1,164.2z M602.4,268.3c-0.7-7.4-1.7-14.6-3-21.4l-90.8,0c0.6,6.6,0.9,13.7,0.9,21.4H602.4L602.4,268.3z M597.5,237.8
	c-6.2-26.8-17-48.8-31-66.4c14.9-10.6,23.3-27.1,23.3-44.9c0-15.6-6-29.7-16.6-40c-15.7-15.2-35.3-17.6-63-17.6H384.8v169H474v-46.6
	c18,2.1,29.3,17.8,33.6,46.6H597.5L597.5,237.8z M384.8,246.9v21.4H474v-21.4L384.8,246.9L384.8,246.9z M501.7,126
	c0,12.1-8.4,18.9-25,18.9H474v-37.2h2.7C493,107.6,501.7,114.6,501.7,126L501.7,126z M785,268.3v-21.4l-165.2,0v21.4H785L785,268.3z
	 M785,237.8v-21.7h-76v-24.4h53.2v-49.7H709v-23.6h76V68.8H619.8v169H785L785,237.8z"/>
</svg>
